Fly_normalized_Motion_pl09
version=1
nRows=12
nColumns=43
inDegrees=yes
endheader
time		pelvis_tilt		pelvis_list		pelvis_rotation		pelvis_tx		pelvis_ty		pelvis_tz		hip_flexion_r		hip_adduction_r		hip_rotation_r		knee_angle_r		ankle_angle_r		subtalar_angle_r		mtp_angle_r		hip_flexion_l		hip_adduction_l		hip_rotation_l		knee_angle_l		ankle_angle_l		subtalar_angle_l		mtp_angle_l		lumbar_extension		lumbar_bending		lumbar_rotation		neck_flexion		neck_lateral_bending		neck_rotation		arm_flex_r		arm_add_r		arm_rot_r		elbow_flex_r		pro_sup_r		wrist_flex_r		wrist_dev_r		hand_finger_flex_r		arm_flex_l		arm_add_l		arm_rot_l		elbow_flex_l		pro_sup_l		wrist_flex_l		wrist_dev_l		hand_finger_flex_l		
2.577424		2.751263		-5.954349		96.008249		-0.025102		1.276296		0.725646		30.386086		-3.717109		-14.000770		-21.858160		-25.245494		-0.477016		23.873531		28.395346		-5.375522		-9.428755		-19.901685		-21.261419		2.649563		11.014522		-21.502084		3.526832		-0.525673		-17.713636		6.365733		-3.927094		-53.223664		-31.996040		-30.449538		83.060880		112.809438		2.068904		-8.505147		-30.300709		-78.685988		-43.937459		-48.641822		104.927243		121.527834		-13.796864		-9.492187		-11.285806		
2.581490		2.767012		-5.903984		96.013557		-0.025054		1.263634		0.717236		30.058485		-3.649676		-14.047975		-21.232809		-25.307607		-0.434318		23.792153		28.043404		-5.322107		-9.435909		-18.657583		-21.332471		2.716599		11.186382		-21.130015		3.578710		-0.498889		-18.352486		6.239624		-3.981617		-55.267177		-31.037385		-31.064653		83.346233		112.800823		1.871239		-8.755925		-30.264089		-80.903228		-42.632823		-49.331682		105.268053		121.646597		-13.914939		-9.843653		-11.070531		
2.585556		2.725274		-5.845631		96.005763		-0.025133		1.250903		0.708765		29.730272		-3.645801		-14.094879		-20.622691		-25.308887		-0.499953		23.740099		27.675066		-5.210594		-9.445146		-17.468977		-21.404598		2.797737		11.368757		-20.755446		3.558383		-0.434461		-19.110608		6.186033		-4.152651		-57.170294		-30.023767		-31.624308		83.451378		112.786469		1.674011		-8.989677		-30.227459		-83.017596		-41.422232		-49.914228		105.581775		121.795657		-14.011178		-10.223623		-10.812190		
2.589621		2.713121		-5.852195		95.962736		-0.025469		1.237953		0.700396		29.477220		-3.629465		-14.109023		-19.982518		-25.359480		-0.531596		23.716136		27.388760		-5.115151		-9.455245		-16.336219		-21.411851		2.818915		11.442154		-20.370053		3.604180		-0.377385		-19.579747		6.126642		-4.263821		-59.005694		-29.041671		-32.199753		83.599071		112.743360		1.475786		-9.146938		-30.259430		-84.698230		-39.952300		-50.219573		105.832276		121.859592		-14.130294		-10.423998		-10.704307		
2.593687		2.408079		-5.541744		95.667062		-0.025074		1.225510		0.691769		28.970114		-3.725498		-13.786696		-19.519222		-25.369383		-0.778031		23.929240		26.570566		-4.921233		-10.086309		-15.031774		-21.759949		2.898511		12.967014		-20.364954		3.212028		-0.109644		-20.351098		6.138360		-4.416330		-60.555018		-27.871036		-32.630635		83.457064		113.007910		1.058548		-9.790811		-29.630557		-86.386312		-38.725091		-50.731994		106.013908		122.486348		-14.567805		-10.892942		-9.170469		
2.597753		2.401651		-5.484375		95.694559		-0.025257		1.212407		0.683428		28.726098		-3.743992		-13.949932		-19.066142		-25.399733		-0.856475		23.963589		26.280898		-4.828982		-10.065391		-14.065812		-21.775942		2.821307		13.218162		-20.038425		3.284253		-0.111797		-21.211943		5.958952		-4.454529		-62.113690		-26.833440		-33.078575		83.550345		112.963573		0.903425		-9.777217		-29.579306		-87.857224		-37.429101		-50.842733		106.129523		122.534809		-14.830948		-10.968094		-9.031673		
2.601818		2.370384		-5.446199		95.657578		-0.025497		1.199096		0.675459		28.556763		-3.780307		-14.024046		-18.659195		-25.430016		-0.888153		23.971405		26.114993		-4.742187		-10.051632		-13.319356		-21.791907		2.777632		13.318997		-19.827295		3.329200		-0.085277		-21.519368		5.887081		-4.478539		-63.513179		-25.816046		-33.541151		83.605237		112.924838		0.759293		-9.813173		-29.587471		-88.963735		-35.929089		-50.878434		106.234132		122.562165		-14.962842		-11.022148		-8.976312		
2.605884		2.284148		-5.323438		95.650283		-0.025567		1.185849		0.667426		28.342875		-3.879522		-14.152115		-18.392216		-25.395116		-1.016144		24.018263		25.837724		-4.611906		-10.037399		-12.572236		-21.907615		2.599434		13.569725		-19.688997		3.320432		-0.130715		-22.063731		5.680720		-4.419949		-64.735642		-24.797427		-33.908669		83.615182		112.971599		0.704324		-9.871660		-29.484184		-89.975848		-34.532910		-50.889569		106.270011		122.695488		-15.037970		-11.073771		-8.818065		
2.609949		2.161678		-5.164780		95.623370		-0.025663		1.172569		0.659467		28.111612		-4.015641		-14.259295		-18.163771		-25.327365		-1.178487		24.095990		25.581824		-4.463876		-9.996309		-11.992912		-22.085816		2.355034		13.933911		-19.619424		3.275827		-0.183969		-22.504831		5.487917		-4.354378		-65.807317		-23.833560		-34.242103		83.539400		113.081749		0.679750		-9.918201		-29.317881		-90.761854		-33.163464		-50.834452		106.234669		122.874883		-15.069035		-11.096606		-8.593919		
2.614015		2.082793		-5.039536		95.568093		-0.025608		1.159064		0.651735		27.992494		-4.104738		-14.291067		-18.041159		-25.281166		-1.355126		24.132904		25.462771		-4.398174		-9.951132		-11.643930		-22.102293		2.158597		14.113238		-19.568105		3.245871		-0.186509		-22.691447		5.350246		-4.363020		-66.705055		-22.818867		-34.537898		83.439064		113.129459		0.568652		-9.977579		-29.282719		-91.331607		-31.813806		-50.721579		106.203366		122.933993		-15.055757		-11.082971		-8.481380		
2.618081		1.917056		-4.843183		95.487676		-0.025720		1.145613		0.643971		27.844574		-4.277246		-14.212572		-18.035822		-25.151662		-1.836738		24.242233		25.283665		-4.243789		-9.895214		-11.422071		-22.162906		1.643592		14.502991		-19.595415		3.163762		-0.209898		-22.968270		5.067729		-4.385314		-67.471978		-21.852364		-34.825901		83.267249		113.335920		0.423265		-10.154139		-29.155279		-91.644222		-30.549194		-50.545301		106.087316		123.088119		-14.884721		-11.020947		-8.223168		
2.622146		1.692581		-4.592101		95.370971		-0.025793		1.132151		0.636328		27.696686		-4.482844		-13.970021		-18.122492		-25.058861		-2.549811		24.475522		25.095124		-4.047453		-9.806818		-11.350686		-22.362580		0.807798		15.247579		-19.719019		3.027213		-0.204033		-23.203118		4.728950		-4.460075		-68.097731		-20.923785		-35.104737		83.011826		113.768850		0.211121		-10.442733		-28.875713		-91.713022		-29.403956		-50.388972		105.898000		123.375754		-14.594257		-10.922425		-7.795503		
